<svg width="139" height="79" viewBox="0 0 139 79" fill="none" xmlns="http://www.w3.org/2000/svg">
<path d="M0 0H62.7266V11.2109H36.9688V78.4219H25.7578V11.2109H0V0ZM138.141 28C138.141 38.9375 133.474 45.1719 124.141 46.7031L138.906 78.4219H126.492L111.945 47.0859H87.3906V78.4219H76.1797V0H119.109C131.797 0 138.141 6.36198 138.141 19.0859V28ZM87.3906 35.875H118.508C121.497 35.875 123.648 35.2188 124.961 33.9062C126.273 32.5938 126.93 30.4427 126.93 27.4531V19.6328C126.93 16.6432 126.273 14.4922 124.961 13.1797C123.648 11.8672 121.497 11.2109 118.508 11.2109H87.3906V35.875Z" fill="#EC0000"/>
</svg>
